<svg width="63" height="63" viewBox="0 0 63 63" fill="none" xmlns="http://www.w3.org/2000/svg">
<path d="M5.47785 15.2943C1.84596 21.1053 0.250962 27.9597 0.94421 34.7771C1.63746 41.5946 4.57953 47.9876 9.3068 52.9486C14.0341 57.9096 20.2777 61.1566 27.0538 62.1778C33.8299 63.199 40.7532 61.9364 46.7327 58.589C52.7121 55.2416 57.4076 49.9997 60.0793 43.6893C62.7511 37.379 63.2471 30.359 61.4891 23.7357C59.7312 17.1124 55.8193 11.2623 50.37 7.10739C44.9206 2.9525 38.2436 0.72902 31.3912 0.787352L31.4429 6.86279C36.9466 6.81594 42.3094 8.60178 46.6862 11.9389C51.0629 15.276 54.2049 19.9746 55.6168 25.2943C57.0287 30.6139 56.6303 36.2522 54.4845 41.3205C52.3386 46.3888 48.5673 50.599 43.7648 53.2876C38.9623 55.9761 33.4017 56.9902 27.9593 56.17C22.5169 55.3498 17.5021 52.7419 13.7053 48.7573C9.9085 44.7728 7.5455 39.6381 6.9887 34.1625C6.4319 28.6869 7.71296 23.1816 10.63 18.5144L5.47785 15.2943Z" fill="#1D4409"/>
</svg>
